<svg width="253" height="62" viewBox="0 0 253 62" fill="none" xmlns="http://www.w3.org/2000/svg">
<rect y="18.5375" width="10.8008" height="24.9249" fill="#EEEEEE"/>
<rect x="19.9409" y="18.5375" width="10.8008" height="19.9399" transform="rotate(90 19.9409 18.5375)" fill="#EEEEEE"/>
<circle cx="19.5249" cy="23.9379" r="5.4004" fill="#EEEEEE"/>
<circle cx="19.5259" cy="38.0619" r="5.4004" fill="#F83A90"/>
<path d="M38.1988 38.5V25.809H33.8993V23.9604H44.7624V25.809H40.4836V38.5H38.1988ZM48.7858 38.7492C47.7611 38.7492 46.8402 38.5277 46.0233 38.0846C45.2063 37.6276 44.5555 36.9907 44.0708 36.1737C43.6 35.3567 43.3646 34.4151 43.3646 33.3488C43.3646 32.2688 43.6 31.3272 44.0708 30.524C44.5555 29.707 45.2063 29.077 46.0233 28.6339C46.8541 28.1769 47.7749 27.9484 48.7858 27.9484C49.8243 27.9484 50.7452 28.1769 51.5483 28.6339C52.3653 29.077 53.0092 29.707 53.48 30.524C53.9646 31.3272 54.207 32.2688 54.207 33.3488C54.207 34.4151 53.9646 35.3567 53.48 36.1737C53.0092 36.9907 52.3653 37.6276 51.5483 38.0846C50.7313 38.5277 49.8105 38.7492 48.7858 38.7492ZM48.765 36.776C49.3327 36.776 49.8451 36.6514 50.302 36.4021C50.7728 36.1391 51.1467 35.7583 51.4237 35.2598C51.7006 34.7474 51.8391 34.1104 51.8391 33.3488C51.8391 32.5872 51.7006 31.9572 51.4237 31.4587C51.1467 30.9464 50.7728 30.5656 50.302 30.3163C49.8451 30.0532 49.3466 29.9217 48.8065 29.9217C48.2527 29.9217 47.7403 30.0532 47.2695 30.3163C46.7987 30.5656 46.4248 30.9464 46.1479 31.4587C45.8709 31.9572 45.7325 32.5872 45.7325 33.3488C45.7325 34.1104 45.8709 34.7474 46.1479 35.2598C46.4248 35.7583 46.7918 36.1391 47.2487 36.4021C47.7195 36.6514 48.225 36.776 48.765 36.776ZM60.5456 38.7492C59.5209 38.7492 58.6001 38.5277 57.7831 38.0846C56.9661 37.6276 56.3153 36.9907 55.8306 36.1737C55.3598 35.3567 55.1244 34.4151 55.1244 33.3488C55.1244 32.2688 55.3598 31.3272 55.8306 30.524C56.3153 29.707 56.9661 29.077 57.7831 28.6339C58.6139 28.1769 59.5348 27.9484 60.5456 27.9484C61.5842 27.9484 62.505 28.1769 63.3081 28.6339C64.1251 29.077 64.769 29.707 65.2398 30.524C65.7245 31.3272 65.9668 32.2688 65.9668 33.3488C65.9668 34.4151 65.7245 35.3567 65.2398 36.1737C64.769 36.9907 64.1251 37.6276 63.3081 38.0846C62.4911 38.5277 61.5703 38.7492 60.5456 38.7492ZM60.5248 36.776C61.0926 36.776 61.6049 36.6514 62.0619 36.4021C62.5327 36.1391 62.9066 35.7583 63.1835 35.2598C63.4604 34.7474 63.5989 34.1104 63.5989 33.3488C63.5989 32.5872 63.4604 31.9572 63.1835 31.4587C62.9066 30.9464 62.5327 30.5656 62.0619 30.3163C61.6049 30.0532 61.1064 29.9217 60.5664 29.9217C60.0125 29.9217 59.5002 30.0532 59.0293 30.3163C58.5585 30.5656 58.1847 30.9464 57.9077 31.4587C57.6308 31.9572 57.4923 32.5872 57.4923 33.3488C57.4923 34.1104 57.6308 34.7474 57.9077 35.2598C58.1847 35.7583 58.5516 36.1391 59.0086 36.4021C59.4794 36.6514 59.9848 36.776 60.5248 36.776ZM67.3828 38.5V23.545H69.6676V38.5H67.3828ZM75.7308 38.7492C74.4292 38.7492 73.3422 38.4446 72.4698 37.8353C71.6113 37.2261 71.1197 36.3675 70.9951 35.2598H73.3422C73.4391 35.7721 73.7092 36.1806 74.1523 36.4852C74.5954 36.7899 75.1493 36.9422 75.8139 36.9422C76.4648 36.9422 76.9632 36.8106 77.3094 36.5475C77.6695 36.2844 77.8495 35.959 77.8495 35.5713C77.8495 35.2528 77.7318 35.0105 77.4964 34.8443C77.2748 34.6782 76.8594 34.5466 76.2501 34.4497C76.0147 34.4082 75.7378 34.3666 75.4193 34.3251C75.1008 34.2697 74.8239 34.2143 74.5885 34.1589C74.0623 34.062 73.5638 33.8958 73.093 33.6604C72.636 33.425 72.2621 33.1065 71.9713 32.7049C71.6805 32.2895 71.5351 31.7703 71.5351 31.1471C71.5351 30.2471 71.8744 29.4924 72.5529 28.8831C73.2314 28.26 74.1938 27.9484 75.4401 27.9484C76.6725 27.9484 77.6625 28.2254 78.4103 28.7793C79.1719 29.3193 79.6081 30.1294 79.7188 31.2095H77.4756C77.4341 30.711 77.2194 30.344 76.8317 30.1086C76.444 29.8732 75.9801 29.7555 75.4401 29.7555C74.8723 29.7555 74.4223 29.8732 74.09 30.1086C73.7576 30.344 73.5915 30.6348 73.5915 30.981C73.5915 31.6179 74.0969 32.0264 75.1077 32.2064C75.26 32.2341 75.4331 32.2688 75.627 32.3103C75.8347 32.338 76.0424 32.3726 76.2501 32.4142C76.4717 32.4419 76.6586 32.4695 76.8109 32.4972C77.171 32.5388 77.5379 32.6219 77.9118 32.7465C78.2857 32.8573 78.6318 33.0165 78.9503 33.2242C79.2688 33.4319 79.525 33.7089 79.7188 34.0551C79.9127 34.4012 80.0096 34.8374 80.0096 35.3636C80.0096 36.0283 79.8365 36.6168 79.4904 37.1291C79.158 37.6276 78.6734 38.0223 78.0364 38.3131C77.3994 38.6039 76.6309 38.7492 75.7308 38.7492ZM88.5414 38.5V26.6399C88.5414 25.7814 88.6453 25.1305 88.853 24.6874C89.0607 24.2305 89.3999 23.9258 89.8707 23.7735C90.3415 23.6212 90.9647 23.545 91.7401 23.545H92.924V25.4975H92.1555C91.6155 25.4975 91.2554 25.5806 91.0754 25.7467C90.9093 25.8991 90.8262 26.2452 90.8262 26.7853V38.5H88.5414ZM87.0667 30.1294V28.1977H92.924V30.1294H87.0667ZM99 38.7492C97.9753 38.7492 97.0544 38.5277 96.2375 38.0846C95.4205 37.6276 94.7697 36.9907 94.285 36.1737C93.8142 35.3567 93.5788 34.4151 93.5788 33.3488C93.5788 32.2688 93.8142 31.3272 94.285 30.524C94.7697 29.707 95.4205 29.077 96.2375 28.6339C97.0683 28.1769 97.9891 27.9484 99 27.9484C100.039 27.9484 100.959 28.1769 101.762 28.6339C102.579 29.077 103.223 29.707 103.694 30.524C104.179 31.3272 104.421 32.2688 104.421 33.3488C104.421 34.4151 104.179 35.3567 103.694 36.1737C103.223 36.9907 102.579 37.6276 101.762 38.0846C100.946 38.5277 100.025 38.7492 99 38.7492ZM98.9792 36.776C99.5469 36.776 100.059 36.6514 100.516 36.4021C100.987 36.1391 101.361 35.7583 101.638 35.2598C101.915 34.7474 102.053 34.1104 102.053 33.3488C102.053 32.5872 101.915 31.9572 101.638 31.4587C101.361 30.9464 100.987 30.5656 100.516 30.3163C100.059 30.0532 99.5608 29.9217 99.0207 29.9217C98.4669 29.9217 97.9545 30.0532 97.4837 30.3163C97.0129 30.5656 96.639 30.9464 96.3621 31.4587C96.0851 31.9572 95.9467 32.5872 95.9467 33.3488C95.9467 34.1104 96.0851 34.7474 96.3621 35.2598C96.639 35.7583 97.006 36.1391 97.4629 36.4021C97.9337 36.6514 98.4392 36.776 98.9792 36.776ZM105.816 38.5V28.1977H108.101V29.797C108.35 29.2708 108.683 28.8624 109.098 28.5716C109.514 28.2669 109.998 28.1146 110.552 28.1146H111.985V30.1709H110.324C109.853 30.1709 109.451 30.3025 109.119 30.5656C108.787 30.8148 108.53 31.2095 108.35 31.7495C108.184 32.2895 108.101 32.975 108.101 33.8058V38.5H105.816ZM123.523 38.5C122.886 38.5 122.346 38.4238 121.903 38.2715C121.46 38.1192 121.128 37.8284 120.906 37.3991C120.685 36.9699 120.574 36.3468 120.574 35.5298V30.1294H118.809V28.1977H120.574V25.5598H122.859V28.1977H125.621V30.1294H122.859V35.2182C122.859 35.6198 122.893 35.9175 122.963 36.1114C123.046 36.2914 123.184 36.4091 123.378 36.4645C123.586 36.5199 123.883 36.5475 124.271 36.5475H125.517V38.5H123.523ZM126.815 38.5V23.545H129.1V29.8386C129.446 29.257 129.924 28.8 130.533 28.4677C131.156 28.1215 131.842 27.9484 132.589 27.9484C133.822 27.9484 134.791 28.3431 135.497 29.1324C136.217 29.9078 136.577 31.0641 136.577 32.6011V38.5H134.313V32.8296C134.313 31.8603 134.119 31.1333 133.732 30.6486C133.344 30.1501 132.749 29.9009 131.945 29.9009C131.128 29.9009 130.45 30.1848 129.91 30.7525C129.37 31.3202 129.1 32.1303 129.1 33.1827V38.5H126.815ZM143.231 38.7492C142.206 38.7492 141.299 38.5277 140.51 38.0846C139.734 37.6276 139.118 36.9976 138.661 36.1944C138.218 35.3913 137.997 34.4566 137.997 33.3904C137.997 32.3242 138.218 31.3825 138.661 30.5656C139.104 29.7347 139.721 29.0908 140.51 28.6339C141.299 28.1769 142.213 27.9484 143.252 27.9484C144.263 27.9484 145.142 28.17 145.89 28.6131C146.651 29.0562 147.24 29.6516 147.655 30.3994C148.07 31.1471 148.278 31.9849 148.278 32.9127C148.278 33.0511 148.278 33.2034 148.278 33.3696C148.278 33.5219 148.264 33.695 148.237 33.8889H139.679V32.3518H145.993C145.952 31.5764 145.668 30.9602 145.142 30.5032C144.629 30.0463 143.999 29.8178 143.252 29.8178C142.712 29.8178 142.213 29.9424 141.756 30.1917C141.299 30.4271 140.932 30.7802 140.655 31.251C140.378 31.708 140.24 32.2965 140.24 33.0165V33.5981C140.24 34.2905 140.378 34.8859 140.655 35.3844C140.932 35.869 141.292 36.236 141.735 36.4852C142.192 36.7345 142.691 36.8591 143.231 36.8591C143.84 36.8591 144.353 36.7206 144.768 36.4437C145.183 36.1667 145.488 35.7929 145.682 35.3221H147.987C147.807 35.9729 147.496 36.5614 147.053 37.0876C146.623 37.5999 146.083 38.0084 145.433 38.3131C144.796 38.6039 144.062 38.7492 143.231 38.7492ZM162.616 38.7492C161.176 38.7492 159.93 38.4377 158.877 37.8146C157.825 37.1776 157.015 36.2983 156.447 35.1767C155.893 34.0412 155.616 32.7326 155.616 31.251C155.616 29.7555 155.893 28.4469 156.447 27.3253C157.015 26.1898 157.825 25.3036 158.877 24.6667C159.93 24.0297 161.176 23.7112 162.616 23.7112C164.333 23.7112 165.732 24.1335 166.812 24.9782C167.892 25.809 168.577 26.9791 168.868 28.4885H166.334C166.154 27.6438 165.745 26.9791 165.108 26.4945C164.485 26.0098 163.648 25.7675 162.595 25.7675C161.64 25.7675 160.816 25.9891 160.123 26.4322C159.431 26.8614 158.891 27.4915 158.503 28.3223C158.129 29.1393 157.942 30.1155 157.942 31.251C157.942 32.3865 158.129 33.3627 158.503 34.1797C158.891 34.9828 159.431 35.6059 160.123 36.049C160.816 36.4922 161.64 36.7137 162.595 36.7137C163.648 36.7137 164.485 36.4783 165.108 36.0075C165.732 35.5367 166.147 34.8651 166.355 33.9927H168.889C168.598 35.5021 167.906 36.6722 166.812 37.503C165.732 38.3338 164.333 38.7492 162.616 38.7492ZM175.127 38.7492C174.103 38.7492 173.182 38.5277 172.365 38.0846C171.548 37.6276 170.897 36.9907 170.412 36.1737C169.942 35.3567 169.706 34.4151 169.706 33.3488C169.706 32.2688 169.942 31.3272 170.412 30.524C170.897 29.707 171.548 29.077 172.365 28.6339C173.196 28.1769 174.117 27.9484 175.127 27.9484C176.166 27.9484 177.087 28.1769 177.89 28.6339C178.707 29.077 179.351 29.707 179.822 30.524C180.306 31.3272 180.549 32.2688 180.549 33.3488C180.549 34.4151 180.306 35.3567 179.822 36.1737C179.351 36.9907 178.707 37.6276 177.89 38.0846C177.073 38.5277 176.152 38.7492 175.127 38.7492ZM175.107 36.776C175.674 36.776 176.187 36.6514 176.644 36.4021C177.114 36.1391 177.488 35.7583 177.765 35.2598C178.042 34.7474 178.181 34.1104 178.181 33.3488C178.181 32.5872 178.042 31.9572 177.765 31.4587C177.488 30.9464 177.114 30.5656 176.644 30.3163C176.187 30.0532 175.688 29.9217 175.148 29.9217C174.594 29.9217 174.082 30.0532 173.611 30.3163C173.14 30.5656 172.766 30.9464 172.489 31.4587C172.213 31.9572 172.074 32.5872 172.074 33.3488C172.074 34.1104 172.213 34.7474 172.489 35.2598C172.766 35.7583 173.133 36.1391 173.59 36.4021C174.061 36.6514 174.567 36.776 175.107 36.776ZM181.965 38.5V28.1977H184.249V29.5478C184.582 29.0493 185.018 28.6616 185.558 28.3846C186.112 28.0938 186.728 27.9484 187.406 27.9484C188.21 27.9484 188.895 28.1077 189.463 28.4262C190.044 28.7447 190.494 29.2224 190.813 29.8594C191.187 29.2639 191.685 28.8 192.308 28.4677C192.945 28.1215 193.638 27.9484 194.385 27.9484C195.673 27.9484 196.677 28.3431 197.397 29.1324C198.131 29.9078 198.498 31.0641 198.498 32.6011V38.5H196.234V32.8296C196.234 31.8603 196.04 31.1333 195.652 30.6486C195.279 30.1501 194.718 29.9009 193.97 29.9009C193.208 29.9009 192.585 30.1848 192.101 30.7525C191.63 31.3202 191.394 32.1303 191.394 33.1827V38.5H189.11V32.8296C189.11 31.8603 188.916 31.1333 188.528 30.6486C188.14 30.1501 187.573 29.9009 186.825 29.9009C186.077 29.9009 185.461 30.1848 184.976 30.7525C184.492 31.3202 184.249 32.1303 184.249 33.1827V38.5H181.965ZM200.438 38.5V28.1977H202.723V29.5478C203.055 29.0493 203.492 28.6616 204.032 28.3846C204.586 28.0938 205.202 27.9484 205.88 27.9484C206.683 27.9484 207.369 28.1077 207.937 28.4262C208.518 28.7447 208.968 29.2224 209.287 29.8594C209.661 29.2639 210.159 28.8 210.782 28.4677C211.419 28.1215 212.112 27.9484 212.859 27.9484C214.147 27.9484 215.151 28.3431 215.871 29.1324C216.605 29.9078 216.972 31.0641 216.972 32.6011V38.5H214.708V32.8296C214.708 31.8603 214.514 31.1333 214.126 30.6486C213.752 30.1501 213.192 29.9009 212.444 29.9009C211.682 29.9009 211.059 30.1848 210.575 30.7525C210.104 31.3202 209.868 32.1303 209.868 33.1827V38.5H207.584V32.8296C207.584 31.8603 207.39 31.1333 207.002 30.6486C206.614 30.1501 206.046 29.9009 205.299 29.9009C204.551 29.9009 203.935 30.1848 203.45 30.7525C202.965 31.3202 202.723 32.1303 202.723 33.1827V38.5H200.438ZM223.835 38.7492C222.81 38.7492 221.889 38.5277 221.072 38.0846C220.255 37.6276 219.605 36.9907 219.12 36.1737C218.649 35.3567 218.414 34.4151 218.414 33.3488C218.414 32.2688 218.649 31.3272 219.12 30.524C219.605 29.707 220.255 29.077 221.072 28.6339C221.903 28.1769 222.824 27.9484 223.835 27.9484C224.873 27.9484 225.794 28.1769 226.597 28.6339C227.414 29.077 228.058 29.707 228.529 30.524C229.014 31.3272 229.256 32.2688 229.256 33.3488C229.256 34.4151 229.014 35.3567 228.529 36.1737C228.058 36.9907 227.414 37.6276 226.597 38.0846C225.78 38.5277 224.86 38.7492 223.835 38.7492ZM223.814 36.776C224.382 36.776 224.894 36.6514 225.351 36.4021C225.822 36.1391 226.196 35.7583 226.473 35.2598C226.75 34.7474 226.888 34.1104 226.888 33.3488C226.888 32.5872 226.75 31.9572 226.473 31.4587C226.196 30.9464 225.822 30.5656 225.351 30.3163C224.894 30.0532 224.396 29.9217 223.856 29.9217C223.302 29.9217 222.789 30.0532 222.319 30.3163C221.848 30.5656 221.474 30.9464 221.197 31.4587C220.92 31.9572 220.782 32.5872 220.782 33.3488C220.782 34.1104 220.92 34.7474 221.197 35.2598C221.474 35.7583 221.841 36.1391 222.298 36.4021C222.769 36.6514 223.274 36.776 223.814 36.776ZM230.651 38.5V28.1977H232.936V29.8386C233.282 29.257 233.753 28.8 234.348 28.4677C234.944 28.1215 235.622 27.9484 236.384 27.9484C237.644 27.9484 238.627 28.3431 239.333 29.1324C240.04 29.9078 240.393 31.0641 240.393 32.6011V38.5H238.108V32.8296C238.108 31.8603 237.907 31.1333 237.506 30.6486C237.118 30.1501 236.522 29.9009 235.719 29.9009C234.916 29.9009 234.252 30.1848 233.725 30.7525C233.199 31.3202 232.936 32.1303 232.936 33.1827V38.5H230.651ZM246.343 38.7492C245.041 38.7492 243.954 38.4446 243.082 37.8353C242.223 37.2261 241.732 36.3675 241.607 35.2598H243.954C244.051 35.7721 244.321 36.1806 244.764 36.4852C245.207 36.7899 245.761 36.9422 246.426 36.9422C247.077 36.9422 247.575 36.8106 247.921 36.5475C248.281 36.2844 248.461 35.959 248.461 35.5713C248.461 35.2528 248.344 35.0105 248.108 34.8443C247.887 34.6782 247.471 34.5466 246.862 34.4497C246.626 34.4082 246.35 34.3666 246.031 34.3251C245.713 34.2697 245.436 34.2143 245.2 34.1589C244.674 34.062 244.176 33.8958 243.705 33.6604C243.248 33.425 242.874 33.1065 242.583 32.7049C242.292 32.2895 242.147 31.7703 242.147 31.1471C242.147 30.2471 242.486 29.4924 243.165 28.8831C243.843 28.26 244.806 27.9484 246.052 27.9484C247.284 27.9484 248.274 28.2254 249.022 28.7793C249.784 29.3193 250.22 30.1294 250.331 31.2095H248.087C248.046 30.711 247.831 30.344 247.443 30.1086C247.056 29.8732 246.592 29.7555 246.052 29.7555C245.484 29.7555 245.034 29.8732 244.702 30.1086C244.369 30.344 244.203 30.6348 244.203 30.981C244.203 31.6179 244.709 32.0264 245.719 32.2064C245.872 32.2341 246.045 32.2688 246.239 32.3103C246.446 32.338 246.654 32.3726 246.862 32.4142C247.083 32.4419 247.27 32.4695 247.423 32.4972C247.783 32.5388 248.15 32.6219 248.524 32.7465C248.897 32.8573 249.244 33.0165 249.562 33.2242C249.881 33.4319 250.137 33.7089 250.331 34.0551C250.524 34.4012 250.621 34.8374 250.621 35.3636C250.621 36.0283 250.448 36.6168 250.102 37.1291C249.77 37.6276 249.285 38.0223 248.648 38.3131C248.011 38.6039 247.243 38.7492 246.343 38.7492Z" fill="#EEEEEE"/>
</svg>
